<?xml version="1.0" encoding="UTF-8"?><svg id="Camada_1" xmlns="http://www.w3.org/2000/svg" viewBox="0 0 942.81 325.22"><defs><style>.cls-1{fill:#e41f1a;stroke-width:0px;}</style></defs><path id="Logosimbolo" class="cls-1" d="M617.6,0l-106.22,106.22h-.27l-10.9-57.81,17.77-11.27h-71.68l-5.21,15.16h-21.53l-4.35,25.68,10.46-6.79h13.13l-7.48,34.53L325.99.39,0,324.83c46.35,2.32,75.7-27.04,75.7-27.04l225.18-225.95,24.32,24.32-228.48,228.67c36.31,0,68.75-21.82,68.75-21.82l183.66-182.91,24.33,24.33-180.96,180.41c40.17,0,72.62-24.91,72.62-24.91l133.01-130.83,23.54,23.54-134.15,132.2c37.85-2.9,72.1-23.37,72.1-23.37l84.97-82.34-49.08,105.71h150.63l-47.49-104.48,83.7,81.11s34.25,20.47,72.1,23.37l-135.48-133.51,23.54-23.54,134.34,132.13s32.44,24.91,72.61,24.91l-182.28-181.72,24.33-24.33,184.98,184.23s32.44,21.82,68.75,21.82l-229.8-229.98,24.55-24.55s181.53,181.53,219,219c37.46,37.47,83.81,35.92,83.81,35.92L617.6,0Z"/></svg>